<?xml version="1.0" standalone="no"?>
<!DOCTYPE svg PUBLIC "-//W3C//DTD SVG 20010904//EN"
 "http://www.w3.org/TR/2001/REC-SVG-20010904/DTD/svg10.dtd">
<svg version="1.0" xmlns="http://www.w3.org/2000/svg"
 width="400.000000pt" height="400.000000pt" viewBox="0 0 400.000000 400.000000"
 preserveAspectRatio="xMidYMid meet">
<metadata>
Created by potrace 1.11, written by Peter Selinger 2001-2013
</metadata>
<g transform="translate(0.000000,400.000000) scale(0.100000,-0.100000)"
fill="#000000" stroke="none">
<path d="M2574 3955 c0 -14 4 -25 8 -25 4 0 7 9 5 20 -5 29 -13 33 -13 5z"/>
<path d="M2524 3953 c-4 -10 -8 -21 -8 -24 -1 -3 -9 -17 -19 -30 -10 -13 -17
-26 -15 -29 2 -3 -7 -16 -19 -29 -12 -13 -20 -28 -17 -33 3 -4 1 -8 -4 -8 -5
0 -17 -16 -28 -35 -10 -19 -22 -35 -26 -35 -5 0 -7 -3 -6 -7 2 -7 -44 -89 -84
-151 -10 -15 -22 -37 -28 -49 -5 -13 -15 -23 -21 -23 -7 0 -9 -3 -6 -7 4 -3 0
-15 -10 -25 -9 -10 -13 -18 -9 -18 4 0 -4 -15 -18 -33 -14 -19 -23 -37 -19
-40 3 -4 2 -7 -4 -7 -6 0 -18 -16 -27 -35 -9 -19 -21 -35 -26 -35 -6 0 -9 -6
-8 -12 2 -9 -11 -13 -39 -14 -24 -1 -43 2 -43 5 0 6 -31 11 -77 14 -7 0 -13 4
-13 9 0 4 -3 7 -7 6 -13 -3 -116 13 -127 19 -5 4 -19 8 -30 9 -32 3 -121 21
-121 24 0 2 -65 12 -82 13 -7 0 -13 3 -13 6 0 3 -12 7 -27 7 -16 1 -39 4 -53
7 -14 3 -31 6 -38 6 -7 1 -11 5 -8 10 4 5 -3 7 -14 4 -11 -3 -28 -2 -37 2 -10
4 -29 9 -43 11 -32 3 -53 8 -65 15 -5 3 -20 4 -33 3 -12 0 -22 4 -22 10 0 6
-5 4 -10 -4 -5 -8 -10 -10 -10 -4 0 6 -6 11 -12 12 -18 1 -116 21 -193 38 -16
4 -39 8 -50 8 -11 1 -25 7 -31 15 -7 9 -13 10 -17 4 -7 -10 -89 5 -103 20 -4
4 -13 2 -21 -4 -9 -9 -13 -8 -13 0 0 6 -12 11 -26 11 -14 0 -35 5 -46 11 -16
9 -19 8 -13 -2 6 -8 4 -10 -6 -3 -8 4 -18 9 -24 11 -5 1 -21 4 -35 8 -46 10
-85 17 -97 18 -7 0 -13 5 -13 10 0 5 -6 4 -14 -2 -11 -9 -18 -8 -31 5 -16 16
-16 15 -11 -17 4 -19 9 -47 11 -63 2 -16 7 -31 10 -34 2 -3 -1 -12 -8 -20 -9
-13 -9 -14 1 -8 6 4 12 6 13 4 2 -12 11 -88 12 -108 1 -14 5 -27 8 -30 4 -3 9
-25 12 -50 3 -25 10 -58 16 -73 14 -36 14 -40 -1 -31 -9 5 -9 2 1 -9 7 -9 10
-17 5 -17 -4 0 -3 -5 3 -11 6 -6 9 -18 6 -27 -4 -8 -2 -13 3 -9 6 3 11 -3 11
-14 1 -12 -3 -17 -9 -13 -7 5 -8 2 -2 -7 4 -8 9 -18 11 -24 1 -5 5 -21 8 -35
4 -14 7 -32 7 -40 0 -8 5 -20 10 -27 6 -7 5 -14 -2 -18 -8 -5 -8 -11 -1 -19 6
-7 12 -28 13 -47 2 -19 6 -36 10 -39 4 -3 9 -26 12 -50 2 -25 5 -47 6 -50 1
-3 2 -9 1 -14 -1 -5 4 -13 11 -17 10 -7 10 -9 -1 -9 -9 0 -10 -4 -4 -12 6 -7
9 -21 8 -30 -2 -10 0 -18 5 -18 4 0 7 -10 6 -22 -1 -13 4 -38 11 -55 8 -21 9
-33 3 -33 -7 0 -7 -6 -1 -17 17 -33 24 -58 22 -82 -2 -13 3 -28 11 -32 10 -7
10 -9 0 -9 -10 0 -10 -5 -2 -20 6 -11 8 -25 5 -30 -3 -6 -2 -10 3 -10 5 0 9
-15 10 -34 2 -46 5 -60 17 -68 6 -5 4 -8 -5 -8 -10 0 -11 -3 -3 -8 6 -4 14
-25 16 -47 2 -22 8 -48 12 -57 4 -9 4 -22 0 -28 -3 -5 -1 -10 4 -10 6 0 11
-10 11 -22 0 -49 4 -78 11 -78 4 0 5 -13 4 -30 -1 -16 1 -30 6 -30 4 0 8 -12
8 -27 0 -35 4 -54 15 -72 7 -11 6 -12 -5 -6 -12 8 -12 6 0 -8 7 -9 11 -26 8
-37 -3 -11 -1 -18 4 -14 5 3 9 -5 9 -18 0 -43 3 -58 14 -58 6 0 4 -5 -4 -10
-9 -6 -11 -10 -3 -10 7 0 10 -7 7 -15 -3 -8 -2 -20 2 -27 5 -7 9 -17 10 -23
12 -68 17 -103 18 -117 0 -10 4 -18 9 -18 4 0 5 -4 2 -10 -3 -5 -3 -16 2 -22
4 -7 8 -22 8 -33 1 -11 5 -40 10 -65 5 -25 8 -49 7 -54 -2 -4 3 -14 9 -22 6
-8 8 -14 4 -14 -4 0 -3 -6 3 -13 7 -8 7 -18 2 -27 -5 -9 -5 -17 1 -21 5 -3 11
-23 13 -45 2 -21 6 -46 9 -54 7 -18 18 -88 18 -113 0 -9 3 -15 7 -13 4 2 7
-17 7 -44 0 -27 3 -46 7 -44 5 3 8 -11 8 -30 0 -22 5 -36 13 -36 8 0 7 -4 -3
-10 -8 -5 -10 -10 -5 -10 6 0 11 -8 12 -17 1 -10 4 -31 7 -48 13 -63 20 -111
21 -137 0 -14 3 -24 8 -21 6 3 12 -45 8 -69 0 -5 4 -8 9 -8 6 0 10 -5 10 -11
0 -5 -6 -7 -12 -3 -10 6 -10 5 -1 -7 7 -8 14 -33 17 -54 2 -22 5 -40 7 -40 1
0 3 -9 4 -20 2 -11 6 -33 10 -50 7 -31 11 -57 20 -115 7 -49 20 -56 20 -10 0
22 -2 40 -5 40 -3 0 -5 12 -4 28 1 15 -4 33 -10 41 -9 12 -8 13 3 6 11 -6 12
-5 5 6 -5 8 -9 34 -9 59 -1 25 -4 51 -8 57 -4 6 -3 14 3 18 6 4 7 13 1 23 -5
9 -11 40 -14 69 -3 29 -8 57 -13 64 -5 8 -3 9 6 4 10 -6 11 -4 5 11 -4 10 -9
41 -10 67 -1 26 -5 51 -9 54 -3 3 -1 12 5 19 7 8 7 14 -1 19 -5 3 -10 26 -10
50 0 24 -5 47 -10 50 -8 5 -7 12 1 22 8 9 9 17 3 21 -5 4 -9 39 -9 79 0 39 -3
69 -6 67 -4 -2 -9 7 -11 21 -3 14 -1 25 4 25 5 0 6 5 3 10 -4 6 -8 28 -10 50
-2 21 -6 44 -11 51 -5 8 -3 10 6 4 9 -6 11 -4 5 5 -5 8 -10 34 -11 59 -2 25
-6 62 -9 81 -2 19 -6 51 -7 70 -1 19 -6 41 -11 47 -5 8 -6 13 0 13 5 0 9 9 10
20 1 11 -1 20 -5 20 -6 0 -11 44 -16 158 -1 12 -3 22 -6 22 -3 0 -5 27 -5 59
0 33 -2 58 -5 56 -3 -2 -5 25 -5 58 0 34 -4 68 -9 75 -5 6 -5 12 -2 12 4 0 2
9 -4 20 -8 15 -8 20 2 20 8 0 9 3 3 8 -5 4 -10 35 -10 69 0 33 -3 59 -6 57 -4
-2 -6 14 -5 36 1 22 0 40 -3 40 -3 0 -6 20 -5 45 0 25 -4 45 -9 45 -5 0 -4 6
2 14 7 8 8 17 3 20 -5 3 -8 23 -8 46 1 22 -1 40 -5 40 -3 0 -6 6 -6 13 0 12
25 14 182 20 28 1 53 7 57 12 5 6 8 5 8 -3 0 -10 5 -10 20 -2 15 8 20 8 20 -1
0 -8 4 -8 13 -2 6 5 30 9 52 8 22 -1 47 2 56 6 9 5 21 3 27 -3 7 -7 12 -8 12
-2 0 5 9 10 20 11 13 1 18 -2 13 -10 -4 -7 0 -6 10 2 9 7 17 10 17 5 0 -5 5
-2 10 6 6 9 10 11 10 3 0 -7 6 -10 13 -8 6 3 37 6 67 8 31 2 61 6 67 10 6 4
14 3 18 -3 4 -6 12 -7 18 -3 18 11 36 12 43 2 3 -5 10 -6 17 -2 6 4 40 8 76
11 36 2 69 9 73 15 6 9 8 9 8 0 0 -13 26 -13 47 0 6 4 14 3 17 -2 3 -5 21 -6
38 -2 18 4 57 7 86 6 28 0 52 3 52 7 0 5 5 7 12 5 8 -1 12 53 13 203 1 113 3
212 6 220 3 8 9 25 13 38 4 12 11 22 16 22 5 0 7 6 4 14 -3 7 2 21 11 30 9 9
13 16 10 16 -4 0 0 11 9 25 9 14 14 25 11 25 -3 0 0 10 7 23 6 12 13 28 14 35
1 7 10 24 19 38 9 14 14 28 11 31 -3 3 1 12 9 20 8 8 15 23 15 34 0 10 5 19
10 19 6 0 9 3 8 8 -4 13 14 56 31 76 9 11 11 16 4 13 -6 -4 -3 10 7 31 11 22
20 45 22 53 2 7 9 20 16 27 6 7 12 20 12 28 0 23 2 28 19 42 12 10 12 12 1 6
-13 -7 -13 -6 0 10 8 10 15 25 17 34 1 9 6 18 12 20 5 2 8 9 5 17 -3 7 -1 16
5 20 6 3 11 14 11 24 0 9 5 22 12 29 6 6 13 17 14 24 1 7 10 31 20 53 21 48
20 44 29 73 8 24 26 25 33 2 3 -7 0 -10 -6 -6 -5 3 -10 0 -9 -7 1 -41 -4 -58
-15 -51 -9 5 -9 2 1 -9 7 -9 9 -17 4 -17 -5 0 -9 -10 -8 -22 1 -13 -1 -27 -5
-33 -3 -5 -7 -23 -8 -39 -1 -16 -8 -41 -16 -57 -10 -20 -11 -30 -3 -38 8 -8 7
-11 -2 -11 -7 0 -11 -6 -8 -14 3 -8 3 -17 -1 -20 -6 -7 -11 -30 -16 -84 -1
-17 -6 -35 -9 -39 -4 -3 -7 -14 -7 -24 0 -9 -6 -20 -12 -22 -10 -4 -10 -6 0
-6 9 -1 10 -6 3 -20 -6 -10 -7 -21 -4 -25 3 -3 2 -6 -3 -6 -5 0 -10 -8 -11
-17 -1 -24 -20 -128 -23 -128 -1 0 -3 -10 -6 -22 -2 -13 -6 -33 -8 -45 -3 -13
-5 -23 -6 -23 -4 0 -23 -103 -24 -127 0 -10 -4 -18 -9 -18 -4 0 -6 -4 -2 -9 3
-5 1 -12 -3 -15 -5 -3 -8 -17 -7 -31 2 -14 -2 -25 -8 -25 -5 0 -7 -3 -4 -6 3
-4 2 -16 -4 -27 -8 -15 -8 -18 1 -12 9 6 9 2 1 -14 -7 -12 -9 -26 -6 -31 3 -5
0 -12 -6 -15 -5 -4 -8 -13 -5 -20 2 -7 2 -16 -2 -19 -3 -4 -7 -12 -8 -19 -1
-7 -5 -25 -9 -42 -13 -58 -17 -80 -18 -107 -1 -16 -5 -28 -8 -28 -7 0 -24 -88
-20 -107 1 -7 -3 -13 -9 -13 -5 0 -9 -3 -9 -7 5 -28 -3 -33 -46 -29 -25 2 -45
1 -45 -3 0 -11 -44 -8 -52 4 -5 7 -8 6 -8 0 0 -6 -9 -11 -20 -12 -13 -1 -18 2
-13 10 5 9 3 9 -8 1 -14 -10 -51 -13 -194 -17 -38 -1 -73 -6 -77 -12 -5 -6 -8
-5 -8 3 0 7 -5 10 -10 7 -6 -4 -46 -8 -90 -10 -43 -2 -84 -6 -90 -10 -5 -3
-10 0 -10 7 0 9 -3 9 -10 -2 -7 -11 -10 -11 -10 -2 0 9 -5 10 -17 3 -10 -5
-29 -8 -43 -7 -14 1 -33 -2 -43 -7 -15 -7 -16 -11 -6 -23 9 -11 8 -14 -2 -14
-9 0 -10 -3 -4 -8 6 -4 11 -32 13 -62 5 -103 10 -149 17 -159 3 -6 1 -11 -5
-11 -6 0 -8 -5 -4 -11 3 -6 8 -38 10 -72 3 -34 7 -87 9 -117 3 -30 6 -73 8
-95 1 -22 6 -46 10 -52 5 -7 4 -13 -2 -13 -7 0 -7 -8 -1 -25 6 -16 6 -26 -1
-31 -6 -3 -6 -10 -1 -17 5 -7 9 -29 8 -49 -1 -21 1 -38 4 -38 3 0 6 -9 7 -20
1 -11 -2 -18 -6 -16 -4 3 -7 -15 -6 -39 0 -24 -3 -41 -7 -39 -7 5 -12 -26 -11
-63 1 -7 -3 -13 -9 -13 -5 0 -6 -5 -3 -10 4 -6 1 -17 -5 -25 -10 -12 -10 -15
1 -15 9 0 10 -3 4 -8 -10 -7 -14 -19 -21 -62 -2 -14 -6 -36 -9 -50 -3 -14 -8
-36 -11 -50 -3 -14 -9 -44 -15 -67 -5 -24 -8 -46 -7 -50 1 -5 -3 -17 -9 -28
-6 -11 -9 -30 -7 -43 2 -13 1 -21 -4 -18 -4 2 -8 -3 -8 -12 -1 -9 -4 -37 -9
-62 -4 -25 -8 -51 -8 -57 0 -7 -4 -13 -8 -13 -4 0 -8 -8 -7 -18 0 -9 -3 -33
-6 -52 -4 -19 -8 -44 -9 -55 -1 -11 -5 -22 -8 -25 -5 -4 -18 -75 -21 -117 -1
-7 -4 -13 -8 -13 -4 0 -7 -13 -8 -30 -3 -53 -5 -60 -16 -60 -6 0 -4 -5 4 -10
12 -7 12 -10 1 -10 -7 0 -11 -6 -8 -14 3 -8 3 -17 -1 -20 -6 -7 -10 -25 -14
-68 -1 -16 -6 -28 -10 -28 -4 0 -6 -13 -4 -30 2 -16 0 -31 -4 -32 -4 -2 -10
-21 -13 -43 -5 -34 -4 -37 6 -20 6 11 12 27 13 35 0 8 4 23 8 33 5 9 6 24 2
32 -3 8 0 14 6 12 10 -2 14 10 21 58 2 11 9 30 16 43 7 13 10 30 7 37 -3 8 0
15 5 17 5 2 11 13 12 26 0 12 4 22 7 22 4 0 7 6 8 13 1 20 9 51 26 102 9 26
17 58 18 71 1 13 6 24 10 24 4 0 8 9 8 20 0 11 4 20 9 20 4 0 6 12 3 26 -3 18
-1 25 6 20 6 -4 11 1 11 11 1 36 4 53 11 53 3 0 6 8 7 18 4 39 16 82 22 82 4
0 8 8 9 18 2 18 9 53 12 62 1 3 2 8 1 13 0 4 3 7 8 7 6 0 8 10 6 22 -3 12 1
28 7 36 13 15 20 42 22 79 1 12 5 21 10 20 5 -1 10 7 12 18 3 24 12 60 14 60
1 0 4 13 6 30 3 16 9 32 13 35 5 3 7 13 5 23 -1 9 2 17 7 17 5 0 8 3 7 8 -1 8
10 58 19 82 4 8 8 26 10 40 2 14 8 29 14 34 5 6 9 19 9 31 0 12 5 26 12 33 9
9 9 12 -1 12 -9 0 -8 5 3 16 9 8 14 20 11 25 -6 8 8 13 28 10 4 0 7 3 7 7 0 5
6 9 13 9 6 0 26 4 42 8 17 3 36 7 43 7 6 1 12 4 12 8 0 3 12 5 28 5 15 -1 32
2 37 6 6 4 22 10 35 13 14 3 43 10 64 15 22 5 43 8 47 5 4 -2 10 0 14 6 4 6
11 8 16 5 5 -4 9 -1 9 5 0 6 5 8 10 5 6 -3 10 -1 10 6 0 8 4 8 15 -1 8 -7 15
-8 15 -3 0 8 15 12 58 15 6 1 12 5 12 9 0 4 8 8 18 7 20 0 72 11 84 18 4 3 24
7 45 10 49 6 55 14 57 68 0 25 5 46 9 46 4 0 3 9 -3 19 -7 14 -7 22 0 26 6 4
9 20 6 36 -2 16 -1 31 4 34 4 2 6 17 4 32 -1 15 2 33 8 40 7 9 7 13 -1 13 -6
0 -11 5 -11 11 0 5 3 8 8 6 4 -3 8 19 8 49 1 30 5 66 8 80 5 19 4 24 -6 18
-10 -6 -10 -5 -2 7 6 8 11 29 10 47 0 17 2 32 6 32 3 0 4 10 0 22 -3 13 -1 19
6 15 11 -8 11 11 -1 30 -4 6 -1 14 5 16 10 4 10 6 0 6 -8 1 -10 6 -5 14 4 6 8
21 9 32 1 11 5 61 9 110 4 50 8 102 8 118 0 15 3 27 7 27 3 0 5 15 5 33 0 17
2 53 5 79 4 26 2 55 -3 64 -6 11 -6 15 1 10 14 -8 18 9 17 81 0 35 2 63 5 63
3 0 6 21 7 48 4 92 7 122 13 122 3 0 5 30 5 66 0 36 3 68 8 71 4 3 2 12 -5 21
-7 9 -8 13 -3 10 7 -4 12 16 13 55 1 33 7 64 13 68 8 5 8 9 0 14 -9 5 -9 10 0
21 9 11 8 14 -2 14 -9 0 -10 3 -4 8 6 4 10 32 10 62 0 30 2 60 5 65 3 6 5 24
6 40 3 54 16 170 21 177 2 4 -3 5 -12 2 -11 -5 -14 -2 -9 10 8 22 -2 20 -12
-1z m16 -40 c0 -19 -13 -9 -16 12 -1 8 2 13 7 9 5 -3 9 -12 9 -21z"/>
<path d="M2613 3911 c0 -11 5 -17 9 -15 7 5 12 -10 9 -28 0 -5 5 -7 12 -5 6 1
11 -4 9 -11 -1 -7 5 -15 13 -18 8 -3 12 -10 9 -15 -3 -5 -1 -9 4 -9 5 0 15
-13 22 -30 7 -16 16 -30 21 -30 5 0 9 -7 9 -15 0 -8 5 -15 11 -15 5 0 8 -4 4
-9 -3 -6 0 -13 7 -18 7 -4 19 -19 27 -33 8 -14 19 -34 25 -45 11 -19 18 -29
43 -59 6 -7 9 -17 6 -20 -4 -3 -1 -6 5 -6 7 0 12 -7 12 -15 0 -8 5 -15 10 -15
6 0 10 -7 10 -15 0 -8 5 -15 10 -15 6 0 10 -7 10 -15 0 -8 5 -15 10 -15 6 0
10 -7 10 -15 0 -8 5 -15 10 -15 6 0 10 -9 10 -20 0 -11 7 -20 16 -20 8 0 13
-4 10 -8 -3 -5 3 -18 14 -29 10 -12 16 -23 13 -27 -3 -3 2 -8 11 -12 9 -3 13
-10 10 -15 -3 -5 0 -9 6 -9 6 0 8 -4 5 -10 -3 -5 -1 -10 4 -10 6 0 11 -7 11
-16 0 -8 5 -12 10 -9 6 3 10 1 10 -6 0 -11 57 -108 70 -119 10 -8 21 -42 12
-36 -4 2 -8 -37 -8 -87 -1 -51 -4 -111 -6 -134 -3 -24 -2 -43 1 -44 3 0 15 -2
26 -5 11 -2 41 -5 67 -6 27 -2 48 -7 48 -12 0 -5 6 -4 13 2 7 6 19 7 26 3 7
-5 30 -7 52 -6 21 2 37 0 35 -4 -5 -7 80 -9 88 -1 5 6 17 104 19 153 0 15 5
27 11 27 6 0 4 5 -4 10 -8 5 -10 10 -4 10 6 0 11 6 11 13 1 6 2 31 4 54 1 23
5 40 9 38 4 -2 7 2 7 10 0 8 -5 11 -10 8 -6 -4 -7 -1 -1 8 24 39 15 51 -48 65
-5 1 -10 3 -13 4 -9 4 -25 7 -46 9 -11 0 -18 5 -15 9 3 5 -5 8 -17 7 -12 -1
-27 1 -32 6 -6 4 -22 10 -35 12 -14 2 -33 7 -42 10 -45 17 -54 20 -68 22 -33
4 -66 18 -83 36 -10 11 -16 19 -13 19 3 0 -5 11 -17 24 -12 14 -35 39 -52 57
-16 18 -23 29 -15 25 8 -5 2 3 -15 18 -16 14 -27 25 -23 26 3 0 -8 15 -25 34
-18 19 -43 49 -57 66 -14 18 -32 40 -40 50 -48 57 -75 95 -72 102 1 4 -5 8
-14 8 -8 0 -13 3 -11 8 6 9 -19 33 -27 25 -3 -4 -6 0 -6 8 0 9 -9 25 -20 37
-11 12 -20 26 -20 32 0 5 -6 10 -14 10 -8 0 -17 8 -20 18 -3 9 -19 32 -35 50
-24 26 -29 28 -28 13z"/>
<path d="M2590 3876 c0 -9 5 -16 11 -16 5 0 8 -4 5 -9 -6 -10 19 -106 35 -135
8 -14 8 -16 -3 -10 -11 6 -11 5 0 -9 8 -9 11 -21 8 -26 -4 -5 2 -14 11 -20 10
-6 13 -11 6 -11 -8 0 -6 -16 7 -50 10 -27 17 -50 15 -50 -2 0 2 -18 10 -40 8
-22 12 -40 8 -40 -3 0 2 -12 12 -26 9 -15 11 -23 4 -19 -8 6 -10 4 -3 -6 4 -8
9 -18 10 -24 1 -5 10 -37 19 -70 9 -33 17 -64 18 -70 2 -5 6 -16 10 -22 5 -7
6 -13 4 -13 -3 0 3 -28 13 -62 11 -34 17 -65 14 -70 -3 -4 -1 -8 5 -8 5 0 8
-11 7 -24 -2 -14 3 -27 11 -30 8 -3 12 -10 9 -14 -3 -5 1 -29 9 -54 7 -26 11
-49 8 -52 -4 -3 -1 -6 5 -6 6 0 11 -8 11 -17 0 -25 6 -51 14 -59 4 -4 7 -20 7
-36 0 -15 4 -28 9 -28 6 0 6 -12 1 -30 -6 -20 -5 -30 2 -30 7 0 7 -4 1 -12 -6
-7 -9 -35 -8 -61 1 -26 -3 -51 -8 -54 -5 -3 -3 -9 4 -14 9 -5 10 -9 2 -9 -6 0
-9 -9 -6 -20 3 -13 0 -20 -8 -20 -9 0 -10 -3 -4 -8 10 -7 15 -92 5 -92 -3 0
-5 -17 -4 -37 0 -21 -4 -44 -10 -52 -8 -11 -8 -13 0 -8 7 4 11 -4 10 -23 -1
-17 -4 -30 -8 -30 -4 0 -5 -6 -2 -14 4 -10 17 -13 47 -9 23 2 57 5 75 6 17 1
32 4 32 7 0 3 26 6 57 8 31 1 62 6 67 10 6 5 33 8 59 7 26 -1 50 2 53 6 2 4
15 6 29 3 25 -4 29 1 40 62 2 10 4 21 5 24 1 3 1 13 0 23 -1 10 4 25 10 33 9
10 9 14 1 14 -8 0 -9 6 -3 18 5 9 7 23 5 30 -3 6 1 12 9 12 10 0 9 3 -2 10 -8
5 -10 10 -4 10 5 0 11 10 11 23 1 12 4 34 6 50 2 16 0 27 -7 27 -8 0 -8 2 0 8
7 4 15 24 18 45 6 35 5 37 -22 37 -15 0 -34 6 -41 13 -11 10 -13 10 -7 0 5 -9
0 -13 -14 -13 -14 0 -19 4 -14 13 6 9 4 9 -7 1 -8 -6 -23 -10 -34 -8 -11 2
-54 5 -95 6 -41 1 -80 6 -87 11 -12 9 -49 106 -45 120 1 4 -3 7 -8 7 -6 0 -10
9 -10 19 0 11 -5 23 -11 26 -5 4 -8 12 -6 18 2 7 -5 27 -15 45 -10 18 -16 37
-13 42 3 4 1 10 -4 12 -5 1 -11 12 -13 23 -1 11 -6 22 -10 25 -3 3 -8 14 -10
25 -1 11 -5 22 -8 25 -7 7 -41 99 -47 128 -3 12 -9 22 -14 22 -4 0 -6 9 -4 20
2 13 -2 20 -11 20 -8 0 -12 5 -9 10 4 6 1 18 -7 27 -9 12 -9 14 -1 9 9 -5 9 1
-1 21 -18 36 -51 113 -61 143 -5 15 -18 48 -26 65 -4 11 -10 27 -11 35 -2 8
-5 17 -8 20 -12 12 -39 103 -33 113 3 6 1 7 -5 3 -7 -4 -12 -1 -12 9 0 8 -4
23 -9 33 -14 26 -24 56 -22 65 1 4 -5 15 -14 23 -13 14 -15 14 -15 0z"/>
<path d="M3238 2194 c-4 -2 -70 -13 -123 -19 -22 -2 -56 -7 -75 -10 -19 -4
-50 -7 -67 -7 -18 -1 -33 -4 -33 -7 0 -3 -24 -6 -53 -6 -28 0 -54 -3 -57 -7
-3 -3 -25 -7 -50 -9 -25 -1 -51 -7 -57 -12 -9 -6 -13 -5 -13 2 0 7 -5 9 -12 4
-7 -4 -22 -8 -33 -8 -23 -1 -67 -24 -46 -25 10 0 11 -3 3 -13 -6 -7 -7 -18 -3
-25 4 -6 6 -27 3 -44 -2 -18 -4 -92 -5 -163 -2 -72 -6 -136 -10 -143 -5 -7 -3
-12 5 -12 10 0 10 -2 -1 -9 -11 -7 -11 -9 0 -14 9 -4 10 -8 4 -14 -11 -9 -13
-148 -3 -158 3 -3 22 1 42 9 20 8 36 13 36 11 0 -2 12 2 27 10 15 8 30 12 35
9 5 -3 15 -1 22 6 14 11 34 17 89 27 15 3 27 9 27 14 0 5 3 8 8 7 15 -4 77 15
84 26 5 7 8 6 8 -4 0 -12 2 -12 8 -2 5 7 21 15 37 18 15 3 36 9 45 14 10 5 20
6 24 3 3 -3 6 -1 6 5 0 7 3 11 8 10 12 -3 92 22 93 30 5 25 8 52 11 89 2 24 5
43 8 43 3 0 5 20 4 45 -1 25 2 45 5 45 3 0 6 12 7 28 2 63 8 108 17 126 7 14
6 16 -4 11 -8 -6 -10 -4 -5 4 5 7 10 36 12 65 4 42 1 53 -11 53 -8 0 -16 -1
-17 -3z"/>
<path d="M2490 1725 c0 -12 -108 -38 -121 -29 -5 3 -9 0 -9 -6 0 -6 -4 -9 -9
-5 -5 3 -12 1 -16 -4 -3 -5 -14 -8 -25 -6 -11 2 -20 0 -20 -6 0 -5 -5 -9 -11
-9 -5 0 -7 6 -3 13 4 6 -1 5 -12 -4 -10 -9 -26 -17 -34 -17 -8 0 -26 -3 -40
-7 -14 -3 -37 -7 -52 -10 -14 -2 -34 -7 -45 -12 -10 -5 -25 -9 -33 -8 -8 0
-29 -5 -46 -12 -24 -9 -34 -9 -44 0 -9 8 -11 8 -7 1 4 -8 -7 -15 -31 -20 -20
-4 -40 -8 -44 -9 -5 -2 -14 -3 -21 -4 -10 -1 -13 -25 -12 -97 0 -52 -3 -98 -8
-101 -4 -2 -4 -10 1 -16 10 -14 10 -27 -1 -44 -4 -6 -4 -14 1 -17 10 -6 9
-146 -1 -163 -4 -6 -3 -14 2 -18 11 -6 -6 -65 -18 -65 -9 0 -35 -51 -33 -62 1
-5 -2 -8 -7 -8 -4 0 -20 -18 -35 -40 -14 -22 -24 -40 -20 -40 3 0 -1 -7 -8
-15 -35 -38 -53 -71 -49 -88 1 -5 -3 -5 -9 -2 -7 4 -14 -2 -17 -14 -3 -12 -10
-21 -15 -21 -5 0 -6 -4 -3 -10 3 -5 2 -10 -3 -10 -5 0 -15 -13 -22 -30 -7 -16
-17 -30 -22 -30 -5 0 -6 -5 -3 -10 3 -6 -1 -10 -9 -10 -9 0 -16 -3 -15 -7 2
-16 -14 -53 -21 -48 -4 3 -11 -6 -14 -20 -4 -14 -11 -25 -17 -25 -6 0 -7 -5
-4 -10 3 -6 -1 -13 -9 -16 -9 -3 -14 -10 -11 -14 3 -5 -3 -15 -13 -22 -10 -7
-24 -28 -31 -45 -7 -18 -16 -33 -20 -33 -3 0 -12 -14 -19 -30 -8 -17 -17 -28
-21 -25 -4 2 -8 -1 -8 -8 0 -17 -33 -67 -45 -67 -5 0 -7 -4 -4 -9 3 -4 -3 -19
-14 -31 -11 -13 -20 -29 -20 -37 0 -8 -4 -11 -10 -8 -5 3 -10 -1 -10 -9 0 -9
-5 -16 -12 -16 -6 0 -9 -3 -5 -6 3 -4 -4 -21 -17 -38 -36 -48 -41 -64 -10 -29
44 48 99 115 103 126 2 5 11 17 20 26 9 9 27 32 41 50 14 18 34 42 44 52 11
10 16 19 12 19 -4 0 5 11 20 25 15 14 23 25 19 25 -4 0 2 9 15 20 13 11 20 20
15 20 -4 0 3 9 16 20 13 10 21 19 17 20 -5 0 10 18 32 40 22 22 40 43 39 46
-1 3 8 17 20 30 12 13 21 27 21 30 0 3 14 19 30 36 17 16 27 34 24 40 -4 7 -2
8 4 4 7 -4 12 -4 12 1 0 8 11 22 78 105 17 22 32 44 32 50 0 5 5 6 10 3 6 -3
10 -2 10 3 0 5 13 27 30 48 16 22 37 50 47 63 10 13 26 31 36 39 9 9 17 20 17
25 0 9 35 45 64 68 15 11 18 11 12 0 -6 -10 -2 -9 15 2 13 9 33 17 44 19 11 2
22 6 25 10 3 4 15 9 25 11 11 1 26 6 33 10 6 5 12 6 12 2 0 -3 10 0 23 7 12 6
27 13 32 14 6 1 24 8 40 14 17 7 38 14 48 15 11 1 22 6 25 11 4 5 16 10 27 12
36 6 74 26 77 42 2 8 3 56 3 107 0 58 4 89 10 86 6 -3 5 0 -2 7 -9 10 -9 18
-1 34 8 15 8 21 -1 24 -6 2 -8 9 -4 15 11 17 12 119 2 137 -5 8 -9 10 -9 5z"/>
<path d="M1161 84 c0 -11 3 -14 6 -6 3 7 2 16 -1 19 -3 4 -6 -2 -5 -13z"/>
</g>
</svg>
